<?xml version="1.0" standalone="no"?>
<!DOCTYPE svg PUBLIC "-//W3C//DTD SVG 20010904//EN"
 "http://www.w3.org/TR/2001/REC-SVG-20010904/DTD/svg10.dtd">
<svg version="1.0" xmlns="http://www.w3.org/2000/svg"
 width="62.000000pt" height="62.000000pt" viewBox="0 0 62.000000 62.000000"
 preserveAspectRatio="xMidYMid meet">

<g transform="translate(0.000000,62.000000) scale(0.100000,-0.100000)"
fill="#000000" stroke="none">
<path d="M436 442 c-3 -6 0 -15 7 -21 17 -14 119 -2 114 13 -4 14 -113 20
-121 8z"/>
<path d="M435 320 c-13 -21 11 -31 66 -28 40 2 54 7 54 18 0 19 -109 28 -120
10z"/>
<path d="M441 196 c-20 -24 11 -38 68 -30 58 7 68 28 20 38 -49 9 -76 7 -88
-8z"/>
</g>
</svg>
